<?xml version="1.0" encoding="utf-8"?>
<!-- Generator: Adobe Illustrator 24.3.0, SVG Export Plug-In . SVG Version: 6.00 Build 0)  -->
<svg version="1.1" xmlns="http://www.w3.org/2000/svg" xmlns:xlink="http://www.w3.org/1999/xlink" x="0px" y="0px"
	 viewBox="0 0 500 500" style="enable-background:new 0 0 500 500;" xml:space="preserve">
<style type="text/css">
	.st0{fill:#EEEEFF;}
	.st1{opacity:0.3;}
	.st2{fill:none;stroke:#7371FC;stroke-miterlimit:10;}
	.st3{fill:#32338C;}
	.st4{fill:#7371FC;}
	.st5{fill:#F8AB73;}
	.st6{fill:#FE814B;}
	.st7{fill:#FE642F;}
	.st8{fill:#F8AB74;}
	.st9{fill:#FE632E;}
	.st10{fill:#32328C;}
	.st11{fill:#FE642E;}
	.st12{opacity:0.4;fill:#F8AB74;}
	.st13{fill:#91C4FB;}
	.st14{fill:#443DC3;}
	.st15{fill:#FEFFFD;}
	.st16{fill:none;stroke:#32338C;stroke-width:4.0278;stroke-linecap:round;stroke-linejoin:round;stroke-miterlimit:10;}
	.st17{fill:#FFFFFF;}
	.st18{fill:none;stroke:#32338C;stroke-width:3.8829;stroke-linecap:round;stroke-linejoin:round;stroke-miterlimit:10;}
	.st19{fill:#EEEEFE;}
	.st20{fill:none;stroke:#FE814B;stroke-width:3.1984;stroke-linecap:round;stroke-linejoin:round;stroke-miterlimit:10;}
	.st21{fill:none;stroke:#91C4FB;stroke-width:3.1984;stroke-linecap:round;stroke-linejoin:round;stroke-miterlimit:10;}
	.st22{fill:#F8AB72;}
</style>
<g id="BACKGROUND">
	<g>
		<path class="st0" d="M80.9,373.2C27.7,310.5,46.4,217.7,78,189.6c31.7-28.1,81.9-43.6,108.8-76.5c26.9-32.9,57.9-56.4,114.6-39.5
			c56.7,17,55.8,61,72.8,88.3c17,27.3,92.8,42.5,88.5,112.5c-4.3,70-52.4,69.9-74.4,87.1c-21.9,17.2-56.6,98.6-125.8,99.5
			C177.7,462,125.9,426.2,80.9,373.2z"/>
		<g>
			<g transform="translate(0,-952.3622)" class="st1">
				<path class="st2" d="M272.6,988.3l-3,10.4c-2.7,0.7-5.4,1.8-7.8,3.2l-9.6-5.3l-8.6,8.5l5.3,9.5c-1.4,2.4-2.5,5-3.2,7.7l-10.6,3
					v12l10.6,3c0.8,2.7,1.8,5.3,3.2,7.7l-5.3,9.5l8.6,8.5l9.6-5.3c2.4,1.4,5,2.4,7.8,3.2l3,10.4h12.2l3-10.4
					c2.7-0.7,5.4-1.8,7.8-3.2l9.6,5.3l8.6-8.5l-5.3-9.5c1.4-2.4,2.5-5,3.2-7.7l10.6-3v-12l-10.6-3c-0.8-2.7-1.8-5.3-3.2-7.7l5.3-9.5
					l-8.6-8.5l-9.6,5.3c-2.4-1.4-5-2.4-7.8-3.2l-3-10.4H272.6z M278.7,1008.8c12.5,0,22.7,10.1,22.7,22.4
					c0,12.4-10.2,22.4-22.7,22.4s-22.7-10.1-22.7-22.4C256,1018.9,266.2,1008.8,278.7,1008.8z"/>
			</g>
			<g transform="translate(0,-952.3622)" class="st1">
				<path class="st2" d="M450.2,1185.9l-2,6.9c-1.8,0.5-3.6,1.2-5.2,2.1l-6.4-3.5l-5.7,5.6l3.6,6.3c-0.9,1.6-1.6,3.3-2.1,5.1l-7,2v8
					l7,2c0.5,1.8,1.2,3.5,2.1,5.1l-3.6,6.3l5.7,5.6l6.4-3.5c1.6,0.9,3.4,1.6,5.2,2.1l2,6.9h8.1l2-6.9c1.8-0.5,3.6-1.2,5.2-2.1
					l6.4,3.5l5.7-5.6l-3.6-6.3c0.9-1.6,1.6-3.3,2.1-5.1l7-2v-8l-7-2c-0.5-1.8-1.2-3.5-2.1-5.1l3.6-6.3l-5.7-5.6l-6.4,3.5
					c-1.6-0.9-3.4-1.6-5.2-2.1l-2-6.9H450.2z M454.3,1199.6c8.3,0,15.1,6.7,15.1,14.9c0,8.2-6.8,14.9-15.1,14.9
					c-8.3,0-15.1-6.7-15.1-14.9C439.2,1206.3,446,1199.6,454.3,1199.6z"/>
			</g>
			<g transform="translate(0,-952.3622)" class="st1">
				<path class="st2" d="M87.2,1204.2l-4.3,15.1c-4,1.1-7.8,2.6-11.3,4.6l-13.9-7.6l-12.4,12.3l7.7,13.7c-2,3.5-3.6,7.2-4.6,11.1
					l-15.3,4.3v17.4l15.3,4.3c1.1,3.9,2.7,7.7,4.6,11.1l-7.7,13.7l12.4,12.3l13.9-7.6c3.5,2,7.3,3.5,11.3,4.6l4.3,15.1h17.6
					l4.3-15.1c4-1.1,7.8-2.6,11.3-4.6l13.9,7.6l12.4-12.3l-7.7-13.7c2-3.5,3.6-7.2,4.6-11.1l15.3-4.3v-17.4l-15.3-4.3
					c-1.1-3.9-2.7-7.7-4.6-11.1l7.7-13.7l-12.4-12.3l-13.9,7.6c-3.5-2-7.3-3.5-11.3-4.6l-4.3-15.1H87.2z M96,1233.9
					c18.1,0,32.9,14.6,32.9,32.4s-14.8,32.4-32.9,32.4c-18.1,0-32.9-14.6-32.9-32.4S77.9,1233.9,96,1233.9z"/>
			</g>
		</g>
		<g>
			<g>
				<path class="st3" d="M243.7,445.4L243.7,445.4c2.3-5.2,6.5-9.4,11.9-11.6l0.2-0.1l-0.7-0.3c-5-2.2-9-6.2-11.2-11.1l-0.1-0.2
					l-0.6,1.1c-2.1,4.2-5.6,7.6-9.9,9.8l-1.5,0.8l0.1,0c5.1,2.1,9.3,6,11.6,10.9L243.7,445.4z"/>
				<path class="st4" d="M258.8,452.6L258.8,452.6c1.1-2.6,3.3-4.7,5.9-5.8l0.1,0l-0.4-0.2c-2.5-1.1-4.5-3.1-5.6-5.6l0-0.1l-0.3,0.5
					c-1.1,2.1-2.8,3.8-5,4.9l-0.8,0.4l0,0c2.6,1.1,4.6,3,5.8,5.5L258.8,452.6z"/>
			</g>
			<g>
				<path class="st4" d="M453,152.1L453,152.1c-1.7-3.9-4.9-7-8.9-8.7l-0.1-0.1l0.5-0.2c3.8-1.7,6.7-4.6,8.4-8.3l0.1-0.2l0.4,0.8
					c1.6,3.2,4.2,5.7,7.4,7.3l1.1,0.6l-0.1,0c-3.8,1.6-6.9,4.5-8.7,8.2L453,152.1z"/>
				<path class="st3" d="M441.7,157.4L441.7,157.4c-0.8-1.9-2.4-3.5-4.4-4.3l-0.1,0l0.3-0.1c1.9-0.8,3.4-2.3,4.2-4.1l0-0.1l0.2,0.4
					c0.8,1.6,2.1,2.9,3.7,3.7l0.6,0.3l0,0c-1.9,0.8-3.5,2.2-4.3,4.1L441.7,157.4z"/>
			</g>
			<g>
				<path class="st4" d="M53.7,239.6L53.7,239.6c-1.7-3.9-4.9-7-8.9-8.7l-0.1-0.1l0.5-0.2c3.8-1.7,6.7-4.6,8.4-8.3l0.1-0.2l0.4,0.8
					c1.6,3.2,4.2,5.7,7.4,7.3l1.1,0.6l-0.1,0c-3.8,1.6-6.9,4.5-8.7,8.2L53.7,239.6z"/>
				<path class="st3" d="M42.4,245L42.4,245c-0.8-1.9-2.4-3.5-4.4-4.3l-0.1,0l0.3-0.1c1.9-0.8,3.4-2.3,4.2-4.2l0-0.1l0.2,0.4
					c0.8,1.6,2.1,2.9,3.7,3.7l0.6,0.3l0,0c-1.9,0.8-3.5,2.2-4.3,4.1L42.4,245z"/>
			</g>
		</g>
	</g>
</g>
<g id="OBJECTS">
	<g>
		<path class="st3" d="M357.8,115.7c7.4,0.9,14.4,3.3,21,6.8c19.2,9.9,36.4,23.6,50.5,39.9c5.7,6.6,11,14.1,11.9,22.8
			c1,9.9-4,19.4-8.8,28.1c-4,7.3-8.9,15.2-16.9,17.3c-6.6,1.7-13.5-1-19.4-4.3c-23.3-12.9-40.7-35-50.7-59.7
			c-4.9-12-6.7-23.4-5.8-36.2c0.2-3.6-9.2-3.9-6.7-6.8C336.5,119.6,347.7,114.4,357.8,115.7z"/>
		<g>
			<path class="st5" d="M416.7,137.3c-0.8,1-1.6,2-2.5,2.9c-3.2,3.1-7.1,5.3-11.2,6.9c-3,1.2-6.2,2.2-9.5,2.1c-0.4,0-0.7,0-1.1-0.1
				c0.2,0.6,0.4,1.2,0.8,1.8c1.2,1.6,3.5,2.1,5.5,2.2c5.5,0.3,11-0.6,16-2.8c0.5-0.2,1.1-0.5,1.4-1c0.3-0.5,0.3-1.2,0.3-1.8
				C416.1,144,416.3,140.7,416.7,137.3z"/>
			<path class="st6" d="M402.9,147.1c4.1-1.7,8-3.9,11.2-6.9c0.9-0.9,1.8-1.9,2.5-2.9c0.6-5.5,1.5-11,1.8-16.6
				c-5.7-1.3-14.9,4.6-18.8,8.3c-5.1,4.8-8.3,11.9-7.6,18.8c0.1,0.5,0.1,1,0.3,1.4c0.4,0,0.7,0.1,1.1,0.1
				C396.7,149.3,399.9,148.4,402.9,147.1z"/>
		</g>
		<path class="st7" d="M441.3,95.5c3.5-4.9,7-9.8,9.1-15.4c2.1-5.6,2.8-12,0.5-17.5c-2.3-5.5-8-9.8-13.9-9.3c1.9-3.8-0.4-8.1-3.5-11
			c-3.1-2.9-7.4-4.2-11.6-4.8c-11.9-1.8-24.1,0.7-36.1,0.1c-4.4-0.2-9-0.8-12.9-3.1c-3.9-2.2-6.9-6.2-6.9-10.7
			c-1.6,3.4-3.3,7.5-3,11.2c0.3,3.7,2.3,7.5,5.7,9c-3.5,1-7.1-1.2-9.3-4c-2.2-2.8-3.1-6.5-3.4-10.1c-3.8,2.4-6.4,6.4-7.9,10.7
			c-1.3,3.9-2,8.1-1.3,12.1c0.7,4,2.8,7.9,6.3,10.1c-1.6,0.3-3.4,0.5-5-0.2c-0.1,2.3,1.2,4.5,3,5.9c1.8,1.4,4,2.3,6.1,2.9
			c7.5,2.2,15.4,2.9,23.1,4.3c18.1,3.5,34.9,11.9,52.2,18.6C434.7,95.3,438.7,96.1,441.3,95.5z"/>
		<g>
			<path class="st8" d="M422.3,92.7c-2.6-9.2-1.2-19.1,1.7-28.3c-9.1,8.5-22.4,10.6-34.8,9c4.1-2,7.8-4.8,10.9-8.2
				c-12.3-0.8-24.9,2.2-37.2,1c-1.4,4.2-2.3,8.6-2.8,12.7c-1.1,8.8-0.4,17.7,1.1,26.5c1.6,9.5,4.2,19.2,10.3,26.8
				c6,7.6,16.1,12.5,25.5,10.1c3.5-0.9,6.7-2.7,9.6-4.8c10.8-7.7,18.7-18.9,24-31.2C426.7,102.8,423.8,97.9,422.3,92.7z"/>
			<path class="st7" d="M400.1,65.3c-3.1,3.4-6.8,6.2-10.9,8.2c12.3,1.7,25.7-0.4,34.8-9c-2.9,9.1-4.3,19.1-1.7,28.3
				c1.5,5.2,4.4,10.1,8.3,13.7c0.7-1.6,1.3-3.2,1.9-4.8c2.6-7,4.4-14.3,4.5-21.7c0.1-7.4-1.8-15-6.1-21.1
				c-6-8.5-16.3-13.2-26.6-15.2c-5-0.9-10.2-1.3-15.2-0.3c-6.7,1.3-15.8,5.1-20.1,10.7c-2.7,3.5-4.7,7.8-6.2,12.2
				C375.2,67.4,387.8,64.5,400.1,65.3z"/>
		</g>
		<g>
			<path class="st5" d="M425.5,92.8c-1.4,3.8-1.4,8.1-0.7,12.1c0.6,3.1,1.8,6.4,4.7,7.8c2.1,1,4.7,0.6,6.7-0.6c2-1.2,3.6-3,4.9-4.9
				c2-2.9,3.6-6.1,4-9.6c0.4-3.5-0.5-7.2-2.9-9.8c-2.3-2.5-6.5-4.3-9.7-2.8C429.2,86.5,426.7,89.5,425.5,92.8z"/>
			<g>
				<path class="st3" d="M440.5,91.5c-1-1.3-2.7-1.8-4.3-1.7c-1.6,0.1-3,1.1-3.9,2.3c-1,1.2-1.7,2.7-2.1,4.2
					c-0.4,1.5-0.6,3.2-0.8,4.8l-1-0.4c1-1.2,2.4-2.1,4.1-2c0.8,0.1,1.6,0.5,2.2,1c0.6,0.6,0.9,1.3,1.1,2.1c0.2,0.8,0.1,1.6-0.1,2.3
					c-0.2,0.7-0.6,1.4-1.2,1.9c-1.1,1.1-2.4,1.7-3.8,2c1.3-0.5,2.6-1.3,3.4-2.4c0.4-0.5,0.8-1.1,0.9-1.8c0.2-0.6,0.1-1.3,0-1.9
					c-0.3-1.3-1.3-2.3-2.6-2.3c-1.2,0-2.4,0.7-3.2,1.7l-1.2,1.5l0.2-1.9c0.2-1.6,0.4-3.3,0.9-4.9c0.5-1.6,1.2-3.2,2.4-4.5
					c1.2-1.3,2.8-2.2,4.6-2.2C437.9,89.3,439.7,90,440.5,91.5z"/>
			</g>
		</g>
		<g>
			<path class="st3" d="M388.7,82.4c0.9,4.6,0.9,9.3,0,13.9c-0.8,4.6-2.5,9.1-4.8,13.1l-0.1-0.4c0.7,0.4,1.4,0.8,2.1,1.1
				c0.7,0.3,1.5,0.5,2.3,0.7c-0.8,0-1.6-0.2-2.4-0.4c-0.8-0.2-1.6-0.5-2.3-0.9l-0.3-0.1l0.1-0.3c2-4.2,3.4-8.5,4.3-13
				C388.6,91.6,388.9,87,388.7,82.4z"/>
		</g>
		<g>
			<path class="st9" d="M385.6,123.6c1.1,0.7,2.2,1.2,3.3,1.3c3.1,0.3,6.1-2.6,8.2-5.3C392.9,119.3,388.7,120.8,385.6,123.6z"/>
			<path class="st3" d="M387.7,118.4c-4-0.4-9.9-4-9.9-4s3.4,6.4,7.7,9.2c3.1-2.8,7.3-4.3,11.5-4c1.8-2.4,2.9-4.6,2.9-4.6
				S391.7,118.8,387.7,118.4z"/>
		</g>
		<path class="st10" d="M377.1,91.7c0.1,2.1-0.9,3.9-2.3,4c-1.4,0.1-2.6-1.6-2.7-3.7c-0.1-2.1,0.9-3.9,2.3-4
			C375.8,87.9,377,89.6,377.1,91.7z"/>
		<path class="st10" d="M405,92.2c0.1,2.1-0.9,3.9-2.3,4c-1.4,0.1-2.6-1.6-2.7-3.7c-0.1-2.1,0.9-3.9,2.3-4
			C403.7,88.4,404.8,90.1,405,92.2z"/>
		<g>
			<path class="st11" d="M366.6,83.4c0.4-1.3,1-2.5,1.7-3.7c0.4-0.6,0.9-1.1,1.4-1.6c0.5-0.5,1.1-1,1.7-1.4c0.6-0.4,1.2-0.9,1.9-1.2
				c0.7-0.4,1.5-0.5,2.2-0.5c1.5,0.1,3.2,0.7,4.1,2.2l-0.1,0.4c-1.5,0.9-2.5,1.3-3.4,1.8c-0.5,0.2-1,0.3-1.5,0.3
				c-0.5,0-1.1,0-1.6,0.2c-0.5,0.2-1,0.4-1.6,0.6c-0.5,0.2-1,0.5-1.5,0.8c-1,0.6-2,1.4-2.9,2.3L366.6,83.4z"/>
		</g>
		<g>
			<path class="st11" d="M409.6,83.7c-0.9-0.9-1.9-1.7-2.9-2.3c-0.5-0.3-1-0.6-1.5-0.8c-0.5-0.3-1-0.5-1.6-0.6
				c-0.5-0.2-1.1-0.2-1.6-0.2c-0.5,0-1-0.1-1.5-0.3c-1-0.4-1.9-0.9-3.4-1.8l-0.1-0.4c0.9-1.6,2.6-2.2,4.1-2.2c0.8,0,1.6,0.1,2.2,0.5
				c0.7,0.4,1.3,0.8,1.9,1.2c0.6,0.4,1.2,0.9,1.7,1.4c0.5,0.5,1,1.1,1.4,1.6c0.8,1.2,1.4,2.4,1.7,3.7L409.6,83.7z"/>
		</g>
		<g>
			<path class="st12" d="M375.8,109.7c0,1.7-2.3,3.1-5.1,3.1c-2.8,0-5.1-1.4-5.1-3.1c0-1.7,2.3-3.1,5.1-3.1
				C373.5,106.6,375.8,108,375.8,109.7z"/>
			<path class="st12" d="M411.4,109.7c0,1.7-2.3,3.1-5.1,3.1c-2.8,0-5.1-1.4-5.1-3.1c0-1.7,2.3-3.1,5.1-3.1
				C409.1,106.6,411.4,108,411.4,109.7z"/>
		</g>
		<g>
			<g>
				<path class="st8" d="M366,24c-0.7,3.5-0.2,7.2,1.3,10.3c1.5,3.2,3.9,5.9,7,7.6c3.1,1.6,6.6,2.1,10.2,2.2
					c3.5,0.1,7.1-0.2,10.6-0.5c7.1-0.6,14.2-1.5,21.4-1c3.6,0.3,7.2,1.2,10.2,3.3c1.5,1.1,2.7,2.4,3.6,4c0.9,1.6,1.4,3.4,1.4,5.2
					c-0.1-1.8-0.7-3.5-1.6-5c-1-1.5-2.2-2.7-3.7-3.7c-2.9-1.9-6.5-2.7-10-2.9c-7.1-0.4-14.2,0.6-21.3,1.2c-3.6,0.3-7.2,0.5-10.8,0.4
					c-3.6-0.1-7.3-0.6-10.5-2.4c-3.2-1.8-5.7-4.8-7.1-8.1C365.4,31.2,365,27.5,366,24z"/>
			</g>
			<g>
				<path class="st8" d="M427.7,61.2c-0.6-4.1-3.7-7.4-7.4-9c-3.7-1.6-7.9-1.6-11.9-1c-4,0.7-7.9,2-11.8,3.2c-4,1.1-8,2.1-12.1,2.7
					c-4.1,0.6-8.3,0.7-12.4,0.1c-4.1-0.6-8.3-1.7-11.6-4.3c-3.3-2.6-5.8-6.2-6.7-10.3c-0.9-4.1-0.5-8.4,1.4-12.1
					c-1.6,3.8-1.9,8-0.8,11.9c1,3.9,3.5,7.4,6.7,9.7c3.3,2.3,7.2,3.5,11.2,4c4,0.5,8.1,0.4,12.1-0.2c4-0.5,8-1.5,11.9-2.6
					c3.9-1.1,7.8-2.4,12-3c4.1-0.6,8.4-0.5,12.2,1.3c1.9,0.9,3.6,2.2,4.9,3.8C426.7,57.1,427.6,59.1,427.7,61.2z"/>
			</g>
			<g>
				<path class="st8" d="M423.6,59.2c-1.3-2.2-3.6-3.4-5.9-3.8c-2.4-0.4-4.8,0.1-7,1c-2.2,0.9-4.2,2.4-6.1,4
					c-1.9,1.6-3.6,3.4-5.5,5.1c1.5-2,3.1-3.9,4.9-5.7c1.8-1.8,3.9-3.4,6.3-4.4c1.2-0.5,2.5-0.8,3.7-1c1.3-0.1,2.6-0.1,3.9,0.2
					c1.3,0.3,2.5,0.9,3.5,1.7C422.3,57,423.1,58.1,423.6,59.2z"/>
			</g>
			<g>
				<path class="st8" d="M437.6,59c1.4-0.5,3-0.4,4.5,0.2c1.4,0.6,2.7,1.6,3.7,2.8c1.9,2.5,2.7,5.6,2.8,8.6c0.1,3.1-0.6,6.1-1.7,8.9
					c-0.6,1.4-1.3,2.7-2,4c-0.8,1.3-1.6,2.5-2.5,3.7c0.7-1.3,1.4-2.6,2-4c0.6-1.3,1.2-2.7,1.7-4.1c0.9-2.8,1.5-5.7,1.4-8.6
					c-0.1-2.9-0.8-5.8-2.4-8.2c-0.8-1.2-1.9-2.2-3.2-2.8C440.6,59,439.1,58.8,437.6,59z"/>
			</g>
			<g>
				<path class="st8" d="M429.8,63.8c1-0.2,2.2,0,3.1,0.5c1,0.5,1.8,1.3,2.4,2.2c1.2,1.8,1.9,3.9,2.3,6c0.4,2.1,0.5,4.3,0.2,6.4
					c-0.1,1.1-0.4,2.1-0.7,3.1c-0.2,0.5-0.3,1-0.5,1.5c-0.1,0.2-0.2,0.5-0.4,0.7c-0.2,0.2-0.5,0.4-0.7,0.3c0.3,0.1,0.5-0.2,0.6-0.4
					c0.1-0.2,0.2-0.5,0.2-0.7c0.1-0.5,0.2-1,0.3-1.5c0.2-1,0.3-2.1,0.3-3.1c0.1-2.1,0-4.1-0.4-6.1c-0.4-2-1-4-1.9-5.8
					c-0.5-0.9-1.1-1.6-2-2.2C431.8,64.2,430.8,63.8,429.8,63.8z"/>
			</g>
		</g>
	</g>
	<g>
		
			<rect x="77.4" y="101.8" transform="matrix(0.9918 -0.128 0.128 0.9918 -20.6658 19.3997)" class="st0" width="126.4" height="137.4"/>
		
			<rect x="66.7" y="72.6" transform="matrix(0.9918 -0.128 0.128 0.9918 -10.1344 17.3474)" class="st4" width="126.4" height="29.9"/>
		
			<rect x="60.8" y="111" transform="matrix(0.9918 -0.128 0.128 0.9918 -22.4281 10.3616)" class="st13" width="17.2" height="137.4"/>
		
			<rect x="50.1" y="81.8" transform="matrix(0.9918 -0.128 0.128 0.9918 -11.8952 8.3082)" class="st14" width="17.2" height="29.9"/>
		
			<rect x="80.5" y="117.6" transform="matrix(0.9918 -0.128 0.128 0.9918 -15.9914 12.6064)" class="st15" width="19.3" height="26.2"/>
		
			<rect x="103.2" y="114.7" transform="matrix(0.9918 -0.128 0.128 0.9918 -15.4293 15.4926)" class="st15" width="19.3" height="26.2"/>
		
			<rect x="125.9" y="111.8" transform="matrix(0.9918 -0.128 0.128 0.9918 -14.8677 18.3795)" class="st15" width="19.3" height="26.2"/>
		
			<rect x="148.7" y="108.8" transform="matrix(0.9918 -0.128 0.128 0.9918 -14.3045 21.2643)" class="st15" width="19.3" height="26.2"/>
		
			<rect x="171.4" y="105.9" transform="matrix(0.9918 -0.128 0.128 0.9918 -13.7413 24.1486)" class="st15" width="19.3" height="26.2"/>
		
			<rect x="84.3" y="147.1" transform="matrix(0.9918 -0.128 0.128 0.9918 -19.7246 13.3343)" class="st15" width="19.3" height="26.2"/>
		
			<rect x="107" y="144.1" transform="matrix(0.9918 -0.128 0.128 0.9918 -19.1606 16.2187)" class="st15" width="19.3" height="26.2"/>
		
			<rect x="129.7" y="141.2" transform="matrix(0.9918 -0.128 0.128 0.9918 -18.5996 19.1059)" class="st15" width="19.3" height="26.2"/>
		
			<rect x="152.5" y="138.3" transform="matrix(0.9918 -0.128 0.128 0.9918 -18.0365 21.9908)" class="st15" width="19.3" height="26.2"/>
		
			<rect x="175.2" y="135.3" transform="matrix(0.9918 -0.128 0.128 0.9918 -17.4748 24.8776)" class="st15" width="19.3" height="26.2"/>
		
			<rect x="88" y="176.5" transform="matrix(0.9918 -0.128 0.128 0.9918 -23.4571 14.0616)" class="st15" width="19.3" height="26.2"/>
		
			<rect x="110.8" y="173.5" transform="matrix(0.9918 -0.128 0.128 0.9918 -22.8949 16.9477)" class="st15" width="19.3" height="26.2"/>
		
			<rect x="133.5" y="170.6" transform="matrix(0.9918 -0.128 0.128 0.9918 -22.3305 19.8316)" class="st15" width="19.3" height="26.2"/>
		
			<rect x="156.3" y="167.7" transform="matrix(0.9918 -0.128 0.128 0.9918 -21.7701 22.7196)" class="st15" width="19.3" height="26.2"/>
		
			<rect x="179" y="164.7" transform="matrix(0.9918 -0.128 0.128 0.9918 -21.2074 25.6051)" class="st15" width="19.3" height="26.2"/>
		
			<rect x="91.8" y="205.9" transform="matrix(0.9918 -0.128 0.128 0.9918 -27.1897 14.789)" class="st15" width="19.3" height="26.2"/>
		
			<rect x="114.6" y="202.9" transform="matrix(0.9918 -0.128 0.128 0.9918 -26.6263 17.6742)" class="st15" width="19.3" height="26.2"/>
		
			<rect x="137.3" y="200" transform="matrix(0.9918 -0.128 0.128 0.9918 -26.065 20.5609)" class="st15" width="19.3" height="26.2"/>
		
			<rect x="160.1" y="197.1" transform="matrix(0.9918 -0.128 0.128 0.9918 -25.5006 23.4446)" class="st15" width="19.3" height="26.2"/>
		
			<rect x="182.8" y="194.1" transform="matrix(0.9918 -0.128 0.128 0.9918 -24.9401 26.3325)" class="st15" width="19.3" height="26.2"/>
		<path class="st16" d="M58.3,81.7l-1.1-8.4c-0.7-5.3,3.1-10.1,8.3-10.8l5.9-0.8c5.3-0.7,10.1,3.1,10.8,8.3l1.9,14.5
			c0.7,5.3-3.1,10.1-8.3,10.8l0,0"/>
		<path class="st16" d="M75.1,79.5L74,71.1C73.3,65.8,77,61,82.3,60.3l5.9-0.8c5.3-0.7,10.1,3.1,10.8,8.3l1.9,14.5
			c0.7,5.3-3.1,10.1-8.3,10.8l0,0"/>
		<path class="st16" d="M91.8,77.4l-1.1-8.4c-0.7-5.3,3.1-10.1,8.3-10.8l5.9-0.8c5.3-0.7,10.1,3.1,10.8,8.3l1.9,14.5
			c0.7,5.3-3.1,10.1-8.3,10.8l0,0"/>
		<path class="st16" d="M108.5,75.2l-1.1-8.4c-0.7-5.3,3.1-10.1,8.3-10.8l5.9-0.8c5.3-0.7,10.1,3.1,10.8,8.3l1.9,14.5
			c0.7,5.3-3.1,10.1-8.3,10.8l0,0"/>
		<path class="st16" d="M125.3,73.1l-1.1-8.4c-0.7-5.3,3.1-10.1,8.3-10.8l5.9-0.8c5.3-0.7,10.1,3.1,10.8,8.3l1.9,14.5
			c0.7,5.3-3.1,10.1-8.3,10.8l0,0"/>
		<path class="st16" d="M142,70.9l-1.1-8.4c-0.7-5.3,3.1-10.1,8.3-10.8l5.9-0.8c5.3-0.7,10.1,3.1,10.8,8.3l1.9,14.5
			c0.7,5.3-3.1,10.1-8.3,10.8l0,0"/>
		<path class="st16" d="M158.7,68.7l-1.1-8.4c-0.7-5.3,3.1-10.1,8.3-10.8l5.9-0.8c5.3-0.7,10.1,3.1,10.8,8.3l1.9,14.5
			c0.7,5.3-3.1,10.1-8.3,10.8l0,0"/>
	</g>
	<g>
		<circle class="st3" cx="248.3" cy="255.9" r="153.2"/>
		<circle class="st4" cx="255.5" cy="255.9" r="153.2"/>
		<g>
			<path class="st17" d="M279.4,331.5c27.7-11.2,52.8-29.7,69-54.7c18.9-29,24.6-64.2,23-99.2c-25.1-37.2-67.7-61.6-115.9-61.6
				c-77.2,0-139.8,62.6-139.8,139.8c0,25.6,6.9,49.6,18.9,70.2C179.4,347.3,233.2,350.2,279.4,331.5z"/>
			<path class="st0" d="M371.4,177.6c1.7,35-4.1,70.2-23,99.2c-16.3,25-41.4,43.5-69,54.7c-46.2,18.6-99.9,15.8-144.8-5.4
				c24.2,41.6,69.3,69.6,120.9,69.6c77.2,0,139.8-62.6,139.8-139.8C395.3,226.9,386.5,200,371.4,177.6z"/>
		</g>
		<polygon class="st3" points="254,257.7 188.2,199 257,254.1 		"/>
		<polygon class="st3" points="258.1,254.2 288.5,365.7 252.9,257.5 		"/>
		<circle class="st6" cx="255.5" cy="255.9" r="10.4"/>
		<g>
			<line class="st18" x1="255.5" y1="116.1" x2="255.5" y2="145.8"/>
			<line class="st18" x1="255.5" y1="366" x2="255.5" y2="395.7"/>
			<line class="st18" x1="395.3" y1="255.9" x2="365.6" y2="255.9"/>
			<line class="st18" x1="145.4" y1="255.9" x2="115.7" y2="255.9"/>
		</g>
		<g>
			<line class="st18" x1="137.5" y1="180.9" x2="162.6" y2="196.8"/>
			<line class="st18" x1="348.4" y1="314.9" x2="373.5" y2="330.8"/>
			<line class="st18" x1="330.4" y1="137.9" x2="314.5" y2="162.9"/>
			<line class="st18" x1="196.4" y1="348.8" x2="180.5" y2="373.9"/>
		</g>
		<g>
			<line class="st18" x1="373.5" y1="180.9" x2="348.4" y2="196.8"/>
			<line class="st18" x1="162.6" y1="314.9" x2="137.5" y2="330.8"/>
			<line class="st18" x1="180.5" y1="137.9" x2="196.4" y2="162.9"/>
			<line class="st18" x1="314.5" y1="348.8" x2="330.4" y2="373.9"/>
		</g>
	</g>
	<g>
		
			<rect x="52.6" y="356" transform="matrix(0.9351 -0.3544 0.3544 0.9351 -132.1107 69.8979)" class="st8" width="144.3" height="79.3"/>
		<polygon class="st6" points="124.8,395.7 43.3,384.1 128.1,404.4 178.2,333 		"/>
	</g>
	<g>
		<g>
			
				<rect x="304.7" y="299.4" transform="matrix(0.9733 0.2297 -0.2297 0.9733 97.8189 -74.6006)" class="st3" width="129.3" height="166.7"/>
			
				<rect x="307" y="300" transform="matrix(0.9733 0.2297 -0.2297 0.9733 98.0079 -75.1222)" class="st13" width="129.3" height="166.7"/>
			
				<rect x="316.8" y="316" transform="matrix(0.9733 0.2297 -0.2297 0.9733 98.7036 -74.8703)" class="st17" width="108.1" height="140.9"/>
			<path class="st3" d="M413.7,289.4l-37.7-8.9c-6-1.4-12.1,2.3-13.5,8.4l-1.5,6.3l59.6,14.1l1.5-6.3
				C423.5,296.9,419.7,290.8,413.7,289.4z"/>
			<g>
				
					<ellipse transform="matrix(0.9784 -0.2068 0.2068 0.9784 -60.7631 79.3992)" class="st19" cx="349.4" cy="330.3" rx="10.4" ry="10.4"/>
				<polyline class="st20" points="344.5,325.9 348.8,332.9 361.3,325.2 				"/>
				<g>
					<line class="st21" x1="369.6" y1="328.4" x2="426.9" y2="341.9"/>
					<line class="st21" x1="368.1" y1="334.7" x2="425.4" y2="348.2"/>
					<line class="st21" x1="366.6" y1="341.1" x2="423.9" y2="354.6"/>
				</g>
			</g>
			<g>
				<path class="st19" d="M351.9,364.9c-1.3,5.6-6.9,9-12.5,7.7c-5.6-1.3-9-6.9-7.7-12.5c1.3-5.6,6.9-9,12.5-7.7
					C349.7,353.7,353.2,359.3,351.9,364.9z"/>
				<polyline class="st20" points="336.9,358.1 341.2,365.1 353.7,357.4 				"/>
				<g>
					<line class="st21" x1="362" y1="360.6" x2="419.3" y2="374.1"/>
					<line class="st21" x1="360.5" y1="366.9" x2="417.8" y2="380.4"/>
					<line class="st21" x1="359" y1="373.3" x2="416.3" y2="386.8"/>
				</g>
			</g>
			<g>
				
					<ellipse transform="matrix(0.43 -0.9028 0.9028 0.43 -165.8792 526.6783)" class="st19" cx="334.2" cy="394.7" rx="10.4" ry="10.4"/>
				<polyline class="st20" points="329.3,390.3 333.6,397.3 346.1,389.6 				"/>
				<g>
					<line class="st21" x1="354.4" y1="392.8" x2="411.7" y2="406.3"/>
					<line class="st21" x1="352.9" y1="399.1" x2="410.2" y2="412.6"/>
					<line class="st21" x1="351.4" y1="405.5" x2="408.7" y2="419"/>
				</g>
			</g>
			<path class="st13" d="M427.3,320.8l-77.6-18.3c-2.4-0.6-4-3-3.4-5.5l1.2-5l86.4,20.4l-1.2,5C432.2,319.9,429.8,321.4,427.3,320.8
				z"/>
		</g>
		<g>
			
				<ellipse transform="matrix(0.8454 -0.5342 0.5342 0.8454 -177.5439 240.5898)" class="st19" cx="326.8" cy="427" rx="10.4" ry="10.4"/>
			<polyline class="st20" points="321.9,422.6 326.3,429.6 338.8,421.9 			"/>
			<g>
				<line class="st21" x1="347" y1="425.1" x2="404.3" y2="438.6"/>
				<line class="st21" x1="345.5" y1="431.4" x2="402.8" y2="444.9"/>
				<line class="st21" x1="344.1" y1="437.7" x2="401.3" y2="451.2"/>
			</g>
		</g>
	</g>
	<g>
		<g>
			<path class="st17" d="M416.7,169.3c-1.4,3.3-3,6.4-4.8,9.5c-1.8,3.1-3.6,6.1-5.7,9c1.4-3.3,3-6.4,4.8-9.5
				C412.7,175.2,414.5,172.1,416.7,169.3z"/>
		</g>
		<g>
			<path class="st3" d="M431.4,215.1c0,0-10.1,15.8-20.1,27.6c-10,11.8-24.1,25-24.1,25l-75.3-31.6l11.1-25.8l55.2,17l31.8-45
				L431.4,215.1z"/>
			<g>
				<path class="st22" d="M311.1,205.4l11.9,5l-7.8,18.2l-7.7-2.6l-17,0.7l-5-2.5c-1.8-0.9-2.5-3.2-1.5-5l1.4-2.4l-1.2-0.9
					c-1.7-1.3-1.9-3.9-0.3-5.4l1.4-1.3l-1.8-2.5c-1.3-1.8-0.7-4.3,1.2-5.3l1.9-1l-0.6-3.3c-0.3-1.9,0.8-3.7,2.7-4.1v0
					c2.4-0.6,4.9-0.1,6.9,1.3L311.1,205.4z"/>
				<path class="st22" d="M311.3,206.6c-3.6-7.7-7.3-15.7-7.9-24.2c0-0.4-0.1-0.9-0.4-1.1c-0.2-0.1-0.5-0.2-0.7-0.2
					c-2,0-3.8,1.5-4.5,3.3c-0.7,1.9-0.4,4,0.4,5.8c0.2,0.4,0.4,0.8,0.4,1.2c0,0.4-0.2,0.7-0.4,1.1c-0.6,1.1-1.3,2.2-1.9,3.3
					C300.2,200.7,305.5,204.6,311.3,206.6z"/>
				<g>
					<path class="st3" d="M304.4,201.5c-0.7-0.4-1.4-0.9-2.1-1.4c-0.7-0.5-1.3-1-2-1.6c-0.6-0.5-1.3-1.1-1.9-1.7
						c-0.6-0.6-1.2-1.1-1.8-1.8c0.7,0.4,1.4,0.9,2.1,1.4c0.7,0.5,1.3,1,2,1.6c0.6,0.5,1.3,1.1,1.9,1.7
						C303.2,200.3,303.8,200.8,304.4,201.5z"/>
				</g>
			</g>
			<g>
				<path class="st8" d="M300.5,99.8l18.2,7c2.4,0.9,3.8,3.3,3.6,5.8l-0.9,9.3l-6.3,10.3c0,0-2.6-0.7-1.7-3.6c0.9-2.9,4-10.7,4-10.7
					v-5.5c0,0-3,12.6-5.8,15c-2.9,2.3-13.2-2.2-16-4.5c-1.4-1.1,1.1-4.7,1.4-10C297.4,107.4,295.8,100,300.5,99.8z"/>
				<g>
					<path class="st3" d="M312.2,104.1c0.3,2.1,0.4,4.2,0.2,6.4c-0.1,2.1-0.5,4.2-1.1,6.3c-0.6,2-1.3,4.1-2.3,6
						c-1,1.9-2.1,3.7-3.4,5.4c1.1-1.8,2.2-3.6,3-5.5c0.9-1.9,1.6-3.9,2.1-5.9c0.6-2,0.9-4.1,1.2-6.2
						C312.2,108.3,312.2,106.2,312.2,104.1z"/>
				</g>
				<g>
					<path class="st3" d="M305.2,101.7c0.2,2.1,0.2,4.1,0,6.2c-0.2,2.1-0.5,4.1-1,6.2c-0.5,2-1.1,4-1.9,5.9c-0.4,1-0.8,1.9-1.3,2.8
						c-0.3,0.5-0.5,0.9-0.8,1.4c-0.3,0.4-0.6,0.9-1.1,1c0.5-0.2,0.8-0.7,1-1.1c0.2-0.5,0.4-0.9,0.6-1.4c0.4-0.9,0.8-1.9,1.2-2.9
						c0.7-1.9,1.3-3.9,1.8-5.9c0.5-2,0.8-4,1.1-6.1C305.1,105.8,305.2,103.7,305.2,101.7z"/>
				</g>
			</g>
		</g>
	</g>
</g>
</svg>
